PathFileType	4	(X/Y/Z)	..\data\2014029\dynamic\2014029_C5_05.trc
DataRate	CameraRate	NumFrames	NumMarkers	Units	OrigDataRate	OrigDataStartFrame	OrigNumFrames
100.000000	100.000000	4	52	mm	100.000000	107	172
Frame#	Time	L_IAS			L_IPS			R_IPS			R_IAS			L_FTC			L_FLE			L_FME			L_FAX			L_TTC			L_FAL			L_TAM			L_FCC			L_FM1			L_FM2			L_FM5			R_FTC			R_FLE			R_FME			R_FAX			R_TTC			R_FAL			R_TAM			R_FCC			R_FM1			R_FM2			R_FM5			CV7			TV10			SXS			SJN			L_SIA			L_SRS			L_SAA			L_SAE			L_HLE			L_HME			L_UOA			L_RSP			L_UHE			L_HM2			L_HM5			R_SIA			R_SRS			R_SAA			R_SAE			R_HLE			R_HME			R_UOA			R_RSP			R_UHE			R_HM2			R_HM5			
		X1	Y1	Z1	X2	Y2	Z2	X3	Y3	Z3	X4	Y4	Z4	X5	Y5	Z5	X6	Y6	Z6	X7	Y7	Z7	X8	Y8	Z8	X9	Y9	Z9	X10	Y10	Z10	X11	Y11	Z11	X12	Y12	Z12	X13	Y13	Z13	X14	Y14	Z14	X15	Y15	Z15	X16	Y16	Z16	X17	Y17	Z17	X18	Y18	Z18	X19	Y19	Z19	X20	Y20	Z20	X21	Y21	Z21	X22	Y22	Z22	X23	Y23	Z23	X24	Y24	Z24	X25	Y25	Z25	X26	Y26	Z26	X27	Y27	Z27	X28	Y28	Z28	X29	Y29	Z29	X30	Y30	Z30	X31	Y31	Z31	X32	Y32	Z32	X33	Y33	Z33	X34	Y34	Z34	X35	Y35	Z35	X36	Y36	Z36	X37	Y37	Z37	X38	Y38	Z38	X39	Y39	Z39	X40	Y40	Z40	X41	Y41	Z41	X42	Y42	Z42	X43	Y43	Z43	X44	Y44	Z44	X45	Y45	Z45	X46	Y46	Z46	X47	Y47	Z47	X48	Y48	Z48	X49	Y49	Z49	X50	Y50	Z50	X51	Y51	Z51	X52	Y52	Z52	

108	1.07	137.3007354736328	1032.107299804688	87.73397064208987	-62.93443298339847	1029.0400390625	176.117431640625	-58.845142364502	1020.774597167969	275.7196960449219	145.8165893554688	1037.8193359375	338.3187255859376	40.92573928833009	944.5875244140627	24.88557815551759	-58.24856948852541	507.8300170898439	82.97071838378906	-63.3586807250977	489.6724853515626	208.4286193847657	-93.12595367431643	447.1793823242189	79.52517700195312	-34.02542114257815	423.8328552246095	144.3488922119141	-215.5045928955079	94.96734619140626	133.8789978027344	-182.1929168701172	104.8318557739258	231.9122314453125	-273.3574829101563	41.8493766784668	181.0769653320312	-53.52695846557621	16.54401588439942	207.7017974853516	-60.90098571777347	36.0283546447754	152.4005889892578	-119.9365005493164	19.48453903198243	100.4958114624024	58.67422103881832	922.0899658203127	404.4813537597657	246.2989959716797	509.7523193359376	374.9382934570314	255.9379119873047	487.9013977050782	247.332992553711	249.0645294189453	440.9526977539064	378.0312500000001	324.3827209472656	464.6297607421876	323.6074218750001	384.3688964843751	88.03871917724611	336.4203186035157	410.8322143554688	115.1082153320313	240.8641662597657	362.726806640625	14.41780853271485	282.8515014648439	559.1697387695314	102.7871704101563	253.5366210937501	547.7113647460939	103.9166107177735	310.0368652343751	531.1755981445314	70.64668273925783	353.7190551757814	22.46091270446775	1564.489868164063	195.479965209961	-69.88687133789067	1301.216064453125	205.3210449218751	182.8960571289062	1269.772094726563	211.7093353271485	149.2359771728516	1463.574951171875	209.0650939941407	-83.4479904174805	1337.73486328125	94.4102783203125	-38.48248672485354	1487.861450195313	88.09206390380861	24.1869239807129	1482.244750976563	-20.17266273498535	80.49118041992189	1484.495727539063	-18.98469161987304	160.0107879638672	1148.072265625	-123.9256362915039	116.4813232421875	1117.572265625	-38.63038635253906	121.3837356567383	1103.983154296875	-86.58594512939453	400.3553466796876	999.626159667969	-58.55446243286129	350.8315429687501	959.7047119140627	-117.0019836425781	477.5085449218751	962.2656860351565	-53.82487869262691	415.4015502929689	900.3325805664065	-120.5931625366211	-98.75244903564459	1339.747802734375	283.2354736328126	-53.33937835693364	1484.903930664063	289.2464904785157	-20.08094406127935	1489.417358398438	399.6102905273439	29.84039688110347	1495.466796875	420.316375732422	-56.58821487426765	1152.662963867188	484.6866760253907	-56.69673538208014	1134.459350585938	391.5393371582032	-79.92082977294929	1135.732788085938	446.0252685546876	38.73397827148432	875.6748046875002	497.1101379394532	-48.96813201904305	890.782409667969	522.9774780273439	50.777172088623	783.261413574219	504.1704406738282	-63.46386337280281	803.6278076171877	530.1725463867189	
109	1.08	150.4352111816407	1030.601928710938	87.4113693237305	-49.23828125000004	1027.2021484375	177.1364440917969	-44.83853530883793	1019.193420410156	276.6700134277344	160.1527099609375	1035.927978515625	338.1912841796876	52.74860763549806	943.4060668945315	25.01251220703126	-49.47832107543947	507.6531677246095	83.22156524658205	-53.63349151611332	489.4134521484376	208.8734283447266	-85.00665283203128	447.523406982422	79.83024597167969	-25.88520050048831	423.0597229003907	144.5891571044922	-214.0258941650391	97.4384689331055	133.5980529785156	-180.8133087158204	106.8936767578125	231.8372039794922	-273.0930786132813	45.39512252807618	180.8186340332031	-53.13904571533207	16.64578819274903	207.639389038086	-60.56501007080082	36.17341995239259	152.2791290283203	-119.7696609497071	19.76440238952637	100.6675491333008	72.77227783203122	920.226745605469	404.5660705566407	257.6862182617188	507.0747070312501	374.5238037109376	268.3418273925781	485.7389526367189	246.8417358398438	261.0935974121094	438.1893005371095	377.2686462402345	336.51171875	463.0053100585939	323.503875732422	402.6787719726563	87.65654754638673	334.5582885742189	429.1900939941407	115.835678100586	239.3085174560548	382.2676696777344	14.14120292663575	280.2991333007814	577.7848510742189	105.4894561767578	251.6965332031251	566.4142456054689	105.5212783813477	308.2791442871095	550.1688232421876	71.15274047851564	351.3875427246095	36.28030776977538	1562.796508789063	196.972885131836	-56.19886016845707	1299.680419921875	206.4156036376954	196.55419921875	1268.0029296875	212.286102294922	163.0775146484375	1461.856323242188	210.2589111328126	-69.99980163574222	1336.389038085938	95.6490478515625	-24.83135414123537	1486.58544921875	89.3670120239258	38.05191802978516	1481.0078125	-18.95181274414062	94.26329040527345	1483.194213867188	-17.53693580627441	176.0209960937501	1148.139282226563	-123.642692565918	131.6771240234375	1116.474365234375	-38.92215728759765	137.1269226074219	1103.019287109375	-86.82456207275391	417.1589965820314	1002.718566894531	-56.47397994995114	369.2672424316407	962.5079345703127	-115.9176254272461	494.887664794922	966.831237792969	-51.25360870361323	434.7725830078126	904.2979125976565	-119.3179779052734	-84.98611450195317	1337.948120117188	284.0897521972657	-39.50572586059575	1483.051025390625	290.3620300292969	-6.398949623107961	1487.390991210938	400.7089233398439	43.50105667114254	1493.432739257813	421.5390625000001	-43.5630836486817	1150.569458007813	484.9580078125001	-43.49565887451178	1132.580932617188	391.7826538085939	-66.84770202636726	1133.73388671875	446.2596435546876	51.72720336914058	873.5234985351565	496.7366943359376	-35.98898315429695	888.5577392578127	522.6629638671876	63.6929321289062	781.1005859375002	503.4246520996095	-50.46675109863289	801.3974609375002	529.6629638671876	
110	1.09	163.8738861083985	1029.234252929688	87.17102050781253	-35.25764465332034	1025.473510742188	178.1753692626953	-30.64833068847661	1017.832092285156	277.6439208984376	174.6834411621094	1034.34619140625	338.1246337890626	64.96919250488283	942.3026123046877	25.22624969482423	-40.28918838500978	507.5397033691407	83.46743774414064	-43.53712081909183	489.2066040039064	209.2992095947266	-76.410758972168	447.9490661621095	80.08185577392578	-17.30717277526858	422.3241577148439	144.819564819336	-212.4241790771485	100.2485504150391	133.0750732421875	-179.408187866211	109.227409362793	231.5763702392578	-272.8053894042969	49.39334869384767	180.2669067382812	-52.75155258178715	16.67884063720703	207.5742492675782	-60.21586227416996	36.29235839843751	152.1505737304688	-119.5275039672852	19.97661590576172	100.7451934814453	87.17548370361325	918.6767578125002	404.7604064941407	269.3377685546875	504.665008544922	374.0955200195314	280.9223327636719	483.849334716797	246.3263397216798	273.0029296875	435.6757812500001	376.483367919922	348.6101684570312	461.2391967773439	323.3277282714845	418.0392150878907	86.82291412353517	332.5343017578126	444.7966918945313	115.8466415405274	237.5863494873048	398.2369689941407	13.76863098144532	277.6450195312501	593.4512329101564	106.2307510375977	249.9150543212892	582.1148681640626	105.3387680053711	306.5510559082032	565.8654174804689	70.17409515380861	349.1040954589845	50.22139358520507	1561.28515625	198.5747528076172	-42.32209777832035	1298.283813476563	207.5075988769532	210.40576171875	1266.473754882813	212.9295501708985	177.0379028320312	1460.358520507813	211.5293426513673	-56.41292190551761	1335.224609375	96.9609298706055	-11.1007537841797	1485.50439453125	90.77800750732423	51.94758987426759	1480.017211914063	-17.60090446472168	108.0647811889649	1482.159423828125	-16.00103759765624	191.5617980957032	1148.29931640625	-123.1479415893555	146.6224212646485	1115.56884765625	-38.95647048950194	152.4720458984375	1102.240112304688	-86.81884765625	433.2464599609376	1005.397583007813	-54.31652069091793	386.7846679687501	965.0325927734377	-114.7248306274414	511.4483337402345	970.8081054687502	-48.64470672607417	453.134246826172	907.8948974609377	-118.0254669189453	-71.06307983398442	1336.285888671875	285.0165405273438	-25.54603576660161	1481.355834960938	291.6083374023438	7.446721076965285	1485.500366210938	401.9318237304689	57.32809066772457	1491.531005859375	422.8673400878907	-30.26698875427253	1148.593139648438	485.3411560058595	-30.08817291259771	1130.830078125	392.1361083984376	-53.51844787597663	1131.85693359375	446.6265258789064	65.04741668701168	871.5050048828127	496.4031677246095	-22.67596626281745	886.4504394531252	522.4237670898439	76.96520996093746	779.073669433594	502.7202453613282	-37.12344741821296	799.2817993164065	529.2124023437501	
111	1.1	177.6475219726563	1028.024780273438	87.02458190917973	-20.98334884643557	1023.902709960938	179.2144927978516	-16.25716209411625	1016.713134765625	278.6292419433594	189.424560546875	1033.107666015625	338.1235961914063	77.61595916748048	941.2788085937502	25.53023910522463	-30.5913887023926	507.4861450195314	83.69007873535158	-32.98223114013675	489.0241088867189	209.6828765869141	-67.2792663574219	448.4483642578126	80.26971435546875	-8.21731948852541	421.5998535156251	144.9866333007813	-210.6693267822266	103.4526062011719	132.3430786132812	-177.8776550292969	111.8458023071289	231.1284332275391	-272.4105224609376	53.91604614257814	179.49267578125	-52.41262817382817	16.61146926879883	207.5224304199219	-59.89857101440433	36.3581886291504	152.040771484375	-119.2607650756836	20.12663459777832	100.7567596435547	101.8979797363281	917.457946777344	405.069549560547	281.2282104492188	502.5393371582032	373.6714477539064	293.5542297363281	482.2087707519532	245.8052520751954	284.8123779296875	433.4288330078126	375.7086791992189	360.6676330566406	459.357879638672	323.0570068359376	430.7159729003907	85.5126190185547	330.4168701171876	457.8623657226563	115.0803756713867	235.7364501953126	410.8698730468751	13.24958324432373	275.0101623535157	606.4308471679689	104.9300842285157	248.1832122802736	595.0882568359376	103.3307800292969	304.8604736328126	578.5435791015626	67.70568084716798	346.9305114746095	64.28864288330077	1559.973876953125	200.2768859863282	-28.24563407897952	1297.04443359375	208.5992279052735	224.4712219238282	1265.218505859375	213.642807006836	191.1224822998047	1459.110717773438	212.8793945312501	-42.67658615112307	1334.26220703125	98.34858703613284	2.709781885147084	1484.637451171875	92.33438110351564	65.86460113525392	1479.296020507813	-16.1121654510498	121.8937759399414	1481.422119140625	-14.38133430480956	206.5948181152345	1148.54833984375	-122.4407119750977	161.2870025634766	1114.878295898438	-38.72104644775389	167.3777618408203	1101.659790039063	-86.55718994140625	448.6258850097657	1007.658752441406	-52.11080932617183	403.372283935547	967.2460937500002	-113.4213027954101	527.2022705078126	974.177673339844	-46.03493118286127	470.4685058593751	911.0711059570315	-116.701431274414	-56.97137069702153	1334.767333984375	286.0109252929688	-11.45566844940189	1479.83203125	292.9942321777344	21.4612712860107	1483.754516601563	403.2860412597657	71.32530975341793	1489.77294921875	424.3079528808595	-16.68364715576178	1146.743896484375	485.8339843750001	-16.45982551574712	1129.21826171875	392.6015625000001	-39.92054367065436	1130.1142578125	447.1219177246095	78.69083404541011	869.6299438476565	496.1184692382814	-9.034722328186101	884.4722900390627	522.2542724609376	90.59091186523433	777.1922607421877	502.0815429687501	-23.44352531433112	797.2935180664065	528.8165283203126	
